Coordinates
version=1
nRows=16
nColumns=36
inDegrees=yes

Units are S.I. units (second, meters, Newtons, ...)
If the header above contains a line with 'inDegrees', this indicates whether rotational values are in degrees (yes) or radians (no).

endheader
time	pelvis_tilt	pelvis_list	pelvis_rotation	pelvis_tx	pelvis_ty	pelvis_tz	hip_flexion_r	hip_adduction_r	hip_rotation_r	knee_angle_r	knee_angle_r_beta	ankle_angle_r	subtalar_angle_r	mtp_angle_r	hip_flexion_l	hip_adduction_l	hip_rotation_l	knee_angle_l	knee_angle_l_beta	ankle_angle_l	subtalar_angle_l	mtp_angle_l	lumbar_extension	lumbar_bending	lumbar_rotation	arm_flex_r	arm_add_r	arm_rot_r	elbow_flex_r	pro_sup_r	arm_flex_l	arm_add_l	arm_rot_l	elbow_flex_l	pro_sup_l
      3.34583330	    -17.58290424	     -2.61327004	      6.77684164	     -0.74126474	      1.12113554	     -0.05549630	     36.25590764	      9.18179378	      2.44025702	     61.80522189	      1.07870462	     33.50057187	    -29.99725410	     -7.49999987	     36.93395421	      2.58171544	     12.25821274	     67.98355302	      1.18653684	     23.12669491	    -20.83926454	     -7.49999987	    -19.01894690	      0.75124574	      0.12258901	     60.08125019	    -13.89467685	      1.44928567	     47.95806731	     66.96896932	     51.74104956	     -8.94570098	      4.08440910	     55.14988061	     67.75760464
      3.35000000	    -17.74694036	     -2.57908224	      6.38044978	     -0.73476123	      1.12105410	     -0.05930464	     35.10080888	      8.78144899	      2.63262260	     60.30801701	      1.05257346	     33.16897272	    -29.22313369	     -7.49999987	     36.47823073	      2.50602016	     11.64440078	     67.45645236	      1.17733720	     22.30900686	    -21.15672622	     -7.49999987	    -17.85789125	      1.26717177	      0.72801550	     60.58595382	    -14.63274993	      2.01339121	     50.12270367	     66.55552981	     51.12230579	     -9.14357706	      4.10699902	     57.00495515	     67.02993370
      3.35416670	    -18.03077888	     -2.44271109	      5.96383122	     -0.72162873	      1.11801787	     -0.05984519	     33.81768733	      8.34351539	      2.82387007	     59.01807418	      1.03005971	     33.35747997	    -28.40622664	     -7.49999987	     35.47402369	      2.51603089	     11.29591161	     66.35424686	      1.15810008	     22.37925495	    -21.62447868	     -7.49999987	    -16.30144606	      1.50921866	      1.00552552	     60.21056424	    -14.94862533	      2.86384358	     52.61429726	     65.19603699	     49.91661844	     -9.61525132	      4.68601522	     59.08428787	     65.30495167
      3.35833330	    -18.49577910	     -2.23183582	      5.56923942	     -0.71531022	      1.12199083	     -0.06410864	     32.96519102	      7.81866120	      2.98226690	     58.00711140	      1.01241508	     33.48526743	    -27.24564111	     -7.49999987	     34.63996883	      2.83974092	     11.01037229	     65.14104628	      1.13692574	     22.23791955	    -22.21097724	     -7.49999987	    -14.54247157	      1.63075348	      0.57307991	     59.86758635	    -14.95669483	      4.48292843	     54.70930470	     65.00653506	     49.57236011	    -10.49282061	      5.61933154	     60.08999701	     64.66317330
      3.36250000	    -18.70665022	     -2.19521884	      5.14092424	     -0.70826451	      1.12291631	     -0.06903744	     31.91776524	      7.37118783	      3.15976799	     56.75777704	      0.99061009	     33.38875377	    -26.18334894	     -7.49999987	     33.67404437	      3.02195861	     10.79833716	     63.80468765	      1.11360188	     22.80259149	    -21.90032972	     -7.49999987	    -12.46177076	      1.85141468	      0.61692024	     59.85939784	    -15.30597507	      4.82411309	     55.30899760	     64.88823034	     48.95958614	    -10.52366845	      5.99186448	     60.75418026	     64.45720466
      3.36666670	    -18.60269576	     -2.02344368	      5.02481542	     -0.69585985	      1.13458844	     -0.06905722	     29.93098411	      6.95906360	      3.40819954	     54.49648861	      0.95114316	     32.14847354	    -25.89674102	     -7.49999987	     31.45995374	      2.86215863	     10.21342746	     61.05413959	      1.06559576	     22.09513483	    -22.15481986	     -7.49999987	    -11.56927217	      1.97183644	      0.21903188	     59.14488772	    -16.20075828	      7.04570230	     58.13689183	     64.18902791	     48.02847958	    -11.54415137	      7.10399491	     63.31413028	     63.19637483
      3.37083330	    -19.01424750	     -1.98938315	      5.20778714	     -0.68841839	      1.14190864	     -0.06496952	     28.38757995	      6.64202645	      3.05129682	     51.75215085	      0.90324543	     31.37260951	    -25.35568938	     -7.49999987	     29.88181636	      2.37885108	      9.96481274	     57.96915097	      1.01175255	     21.29263693	    -21.50370398	     -7.49999987	     -9.62881282	      2.09015429	     -0.08185368	     58.38049791	    -16.47564162	      7.61960020	     59.02430198	     64.17806691	     46.84857102	    -11.77613381	      7.58810785	     63.92765851	     63.03027525
      3.37500000	    -18.60263979	     -2.09525649	      5.46447402	     -0.68778792	      1.14676911	     -0.06503609	     26.78793230	      6.45003228	      2.44438681	     49.46067880	      0.86325170	     30.18972902	    -25.73204252	     -7.49999987	     28.21242268	      1.81914190	      9.64703470	     55.93544754	      0.97625773	     19.24238337	    -21.78789286	     -7.49999987	     -9.69052139	      2.59495874	     -0.55547230	     58.83927461	    -17.39436710	      9.06826840	     61.94713127	     62.21824990	     46.01435234	    -13.12306790	      8.23914891	     67.73547069	     57.38494890
      3.37916670	    -18.64280898	     -2.24505852	      5.53377492	     -0.68037467	      1.15425451	     -0.06123664	     25.50983768	      6.62738189	      2.09423057	     46.89546654	      0.81848030	     29.82388018	    -24.82335992	     -7.49999987	     27.52627398	      0.87080023	      8.75071334	     54.62573833	      0.95339899	     18.46786121	    -21.38656424	     -7.49999987	     -8.55669907	      2.70075926	     -0.57566414	     57.90409685	    -17.19190192	      9.46073388	     62.78078731	     62.30221842	     45.60017367	    -13.73482121	      8.38955358	     68.03485914	     57.35051442
      3.38333330	    -18.75704099	     -2.22906676	      6.03318676	     -0.66808241	      1.15753242	     -0.06139936	     23.62427590	      6.62943914	      1.84671495	     43.71301108	      0.76293597	     29.18863125	    -24.05493013	     -7.49999987	     26.22523870	      0.22611699	      8.23390915	     52.32646621	      0.91326912	     17.71682930	    -21.03357856	     -7.49999987	     -7.12139820	      2.48508575	     -1.00158352	     57.41314889	    -17.31516800	      9.70505187	     63.79012327	     62.40176662	     44.83426540	    -14.19628399	      8.58851049	     68.33882841	     57.30951840
      3.38750000	    -17.59880385	     -2.18498279	      6.45540040	     -0.66086937	      1.16340836	     -0.05805466	     20.30307361	      6.85800714	      1.66237165	     40.29289952	      0.70324376	     28.28032333	    -23.89380265	     -7.49999987	     23.66727909	     -0.39912239	      7.75810217	     50.36093012	      0.87896404	     16.75882034	    -20.61772716	     -7.49999987	     -7.95691303	      2.17299269	     -1.57724659	     57.70300890	    -17.91853521	     10.23804962	     65.69939885	     62.73239008	     44.63927797	    -15.38833291	      8.83496259	     70.42341152	     57.12124642
      3.39166670	    -17.95363101	     -2.21448255	      6.52990636	     -0.66036767	      1.16979806	     -0.05822008	     19.45793757	      6.71430357	      1.58762030	     37.91324549	      0.66171096	     27.32008039	    -23.53351364	     -7.49999987	     22.96601024	     -1.02015506	      6.90908341	     48.30669310	      0.84311085	     15.74444869	    -19.56636292	     -7.49999987	     -6.67075549	      1.74074426	     -1.78819056	     57.41500854	    -18.18092516	     10.49837710	     65.79746691	     62.86024419	     44.32585428	    -15.72846575	      8.82757806	     70.96268260	     57.03651275
      3.39583330	    -17.76714630	     -2.28320520	      6.27595165	     -0.65934308	      1.17394691	     -0.05876335	     18.37801692	      6.76610319	      1.80815994	     35.86571864	      0.62597488	     25.29406182	    -24.85669683	     -7.49999987	     21.82723512	     -1.35574680	      6.29240621	     46.52033581	      0.81193303	     15.03160413	    -19.06282776	     -7.49999987	     -6.93493328	      1.91844140	     -2.41527123	     59.08176085	    -17.48018041	     11.82134308	     66.05247203	     64.79841391	     43.51245925	    -17.12876186	      7.52154775	     74.42863760	     55.39326165
      3.40000000	    -18.23864921	     -2.54976467	      5.71474878	     -0.65294551	      1.17434833	     -0.05414351	     18.19479672	      7.12732047	      1.89054778	     34.37756154	      0.60000164	     24.44552577	    -24.00371127	     -7.49999987	     21.61532212	     -1.92534097	      5.78117239	     45.19742059	      0.78884380	     14.93318952	    -18.56953078	     -7.49999987	     -5.86496443	      1.81007120	     -1.80721415	     59.62622038	    -17.50619612	     11.88781768	     66.90631652	     64.91247498	     43.36449811	    -17.45873387	      7.56508383	     75.10919123	     55.36788329
      3.40416670	    -18.10210515	     -2.69473767	      5.13982725	     -0.64589509	      1.18195769	     -0.05919422	     17.00713315	      7.09890790	      1.73717152	     33.03118285	      0.57650290	     23.15795839	    -23.50292902	     -7.49999987	     20.55406541	     -2.26496024	      5.15880340	     44.41515694	      0.77519073	     15.20315411	    -16.64703737	     -7.49999987	     -5.65223802	      2.18483049	     -0.94278882	     59.92912539	    -17.96870682	     12.36649708	     68.44900632	     65.43269326	     42.57335027	    -17.76963541	      7.57440286	     76.71000467	     55.13715278
      3.40833330	    -18.30540873	     -2.74214928	      4.53957484	     -0.63936853	      1.18257650	     -0.05458918	     16.07741124	      7.30299899	      2.14789505	     31.63171726	      0.55207761	     22.16460293	    -23.89413875	     -7.49999987	     19.55490771	     -2.66082013	      4.53034879	     42.70785329	      0.74539266	     14.18800479	    -15.89237241	     -7.49999987	     -4.62341113	      2.28457766	     -0.05573552	     59.32627157	    -18.13519161	     12.36051952	     69.59977175	     66.05808572	     41.71353317	    -18.28417855	      7.88588296	     77.58522979	     54.80266441
